<svg xmlns="http://www.w3.org/2000/svg" viewBox="0 0 189.39 183.41"><defs><style>.cls-1{fill:rgb(0 148 24);}</style></defs><g id="Layer_2" data-name="Layer 2"><g id="Layer_1-2" data-name="Layer 1"><path class="cls-1" d="M150.56,183.41a7.48,7.48,0,0,1-4.89-1.82L0,57.4,9.78,44.58,142.77,158V123.86h15.57v51.32a8.29,8.29,0,0,1-4.42,7.43A7.47,7.47,0,0,1,150.56,183.41Z"/><path class="cls-1" d="M40.62,183.41a7.32,7.32,0,0,1-3.34-.79,8.26,8.26,0,0,1-4.45-7.44V121H48.4v36.87L179.53,44.62l9.86,12.74L45.54,181.56A7.52,7.52,0,0,1,40.62,183.41Z"/><path class="cls-1" d="M93,102.13a22.54,22.54,0,0,1-15-5.77L12.21,38.06,42.23.22,93,45.19,143.73,0l30.1,37.78L108,96.33A22.53,22.53,0,0,1,93,102.13Z"/></g></g></svg>