<svg xmlns="http://www.w3.org/2000/svg" viewBox="0 0 610.42 183.41"><defs><style>.cls-1{fill:#231f20;}</style></defs><g id="Layer_2" data-name="Layer 2"><g id="Layer_1-2" data-name="Layer 1"><path class="cls-1" d="M150.56,183.41a7.48,7.48,0,0,1-4.89-1.82L0,57.4,9.78,44.58,142.77,158V123.86h15.57v51.32a8.29,8.29,0,0,1-4.42,7.43A7.47,7.47,0,0,1,150.56,183.41Z"/><path class="cls-1" d="M40.62,183.41a7.32,7.32,0,0,1-3.34-.79,8.26,8.26,0,0,1-4.45-7.44V121H48.4v36.87L179.53,44.62l9.86,12.74L45.54,181.56A7.52,7.52,0,0,1,40.62,183.41Z"/><path class="cls-1" d="M93,102.13a22.54,22.54,0,0,1-15-5.77L12.21,38.06,42.23.22,93,45.19,143.73,0l30.1,37.78L108,96.33A22.53,22.53,0,0,1,93,102.13Z"/><path class="cls-1" d="M243.76,133.32v-60H216.44V58.18h68.3V73.31H257.52v60Z"/><path class="cls-1" d="M291.48,67.88V53H305V67.88Zm0,65.44V72.79H305v60.53Z"/><path class="cls-1" d="M322.12,131.29a15.28,15.28,0,0,1-4.89-5.38,14.83,14.83,0,0,1-1.85-7.3V52.86H329v65a.58.58,0,0,0,.19.41.53.53,0,0,0,.38.21h10.81v14.82H328.76A11.72,11.72,0,0,1,322.12,131.29Z"/><path class="cls-1" d="M361,133.32a11.87,11.87,0,0,1-6.73-2,14.78,14.78,0,0,1-4.84-5.38,15.12,15.12,0,0,1-1.8-7.3V95.54H390v-7.3a.66.66,0,0,0-.19-.42.55.55,0,0,0-.38-.21H347.64V72.79H390a11.9,11.9,0,0,1,6.74,2,15,15,0,0,1,4.84,5.38,15.16,15.16,0,0,1,1.8,7.31v45.81Zm.67-14.82H390v-9.7H361.11v9.08a.58.58,0,0,0,.19.41A.51.51,0,0,0,361.68,118.5Z"/><path class="cls-1" d="M429.6,133.32,408,72.79H422.3l12.61,33.4,13.19-33.4h13.47l14.14,33.81,11.67-33.81H501.7L481,133.32H470.68l-15.75-38.2-15,38.2Z"/><path class="cls-1" d="M520.68,133.32a11.88,11.88,0,0,1-6.74-2,14.78,14.78,0,0,1-4.84-5.38,15.12,15.12,0,0,1-1.8-7.3V95.54h42.31v-7.3a.62.62,0,0,0-.19-.42.53.53,0,0,0-.38-.21H507.3V72.79h42.4a11.9,11.9,0,0,1,6.74,2,14.87,14.87,0,0,1,4.84,5.38,15.16,15.16,0,0,1,1.8,7.31v45.81Zm.66-14.82h28.27v-9.7H520.77v9.08a.58.58,0,0,0,.19.41A.53.53,0,0,0,521.34,118.5Z"/><path class="cls-1" d="M580,131.29a15.19,15.19,0,0,1-4.89-5.38,14.83,14.83,0,0,1-1.85-7.3V54.53H586.7V72.79h21V87.61h-21v30.27a.58.58,0,0,0,.19.41.53.53,0,0,0,.38.21h20.4v14.82h-21A11.85,11.85,0,0,1,580,131.29Z"/></g></g></svg>